<svg xmlns="http://www.w3.org/2000/svg" width="16" height="16" viewBox="0 0 16 16">
    <g fill="none" fill-rule="evenodd" opacity=".4">
        <g fill="#4D4D4E">
            <g>
                <g>
                    <g>
                        <g>
                            <g>
                                <path d="M7.253.707c.39-.39 1.024-.39 1.414 0l6.586 6.586c.39.39.39 1.024 0 1.414l-6.586 6.586c-.39.39-1.023.39-1.414 0l-.592-.592c-.39-.39-.39-1.024 0-1.415L11.946 8 6.66 2.714c-.39-.391-.39-1.024 0-1.415zM1.3.707c.39-.39 1.024-.39 1.415 0l6.585 6.586c.39.39.39 1.024 0 1.414l-6.585 6.586c-.39.39-1.024.39-1.415 0L.707 14.7c-.39-.39-.39-1.024 0-1.415L5.992 8 .707 2.714c-.39-.391-.39-1.024 0-1.415z" transform="translate(-812 -651) translate(382 150) translate(0 255) translate(402 184) translate(12 38) translate(16 24)"/>
                            </g>
                        </g>
                    </g>
                </g>
            </g>
        </g>
    </g>
</svg>
