<svg xmlns="http://www.w3.org/2000/svg" width="56" height="56" viewBox="0 0 56 56">
    <g fill="none" fill-rule="evenodd">
        <g>
            <g>
                <g>
                    <g>
                        <g>
                            <g transform="translate(-439 -613) translate(382 150) translate(0 255) translate(51 184) translate(0 24) translate(6)">
                                <rect width="56" height="56" fill="#EEE" rx="28"/>
                                <g fill="#4D4D4E" opacity=".4">
                                    <path d="M21.913 3.048L1.971 3C1.126 2.998.44 3.68.438 4.525v15.946c0 .845.685 1.529 1.529 1.529H21.91c.844 0 1.528-.684 1.528-1.529V4.577c0-.843-.682-1.527-1.525-1.529zM18.9 5.392L12 10.976 4.943 5.392H18.9zM2.689 19.605V6.64l8.599 6.804c.427.338 1.026.336 1.45-.008l8.355-6.762v12.93H2.689z" transform="translate(16 16)"/>
                                </g>
                            </g>
                        </g>
                    </g>
                </g>
            </g>
        </g>
    </g>
</svg>
