<svg xmlns="http://www.w3.org/2000/svg" width="56" height="56" viewBox="0 0 56 56">
    <g fill="none" fill-rule="evenodd">
        <g>
            <g>
                <g>
                    <g>
                        <g>
                            <g>
                                <g transform="translate(-527 -613) translate(382 150) translate(0 255) translate(51 184) translate(88 6) translate(6) translate(0 18)">
                                    <rect width="56" height="56" fill="#38408F" rx="28"/>
                                    <g fill="#FFF">
                                        <path d="M34.906 11.476c1.205.003 1.61.014 1.776.043l.032.006.026.007c.496.155.826.602.842 1.103v.153l.002 1.319v15.132c0 .66-.541 1.194-1.208 1.194H15.04c-.667 0-1.207-.535-1.207-1.194v-7.726H7.955c-.667 0-1.207-.535-1.207-1.195s.54-1.195 1.207-1.195h5.878v-6.171-.287-.016l.002-.042v-.019-.002l.002-.007v-.006c.052-.59.528-1.052 1.12-1.092h.031l.01-.001.077-.001h.021l.18-.001h.04l.753-.001h13.942l.305-.001zM16.248 15.11v12.933h18.92V15.146L26.58 21.89c-.437.343-1.053.345-1.492.008l-8.84-6.788zm16.664-1.244H18.566l7.254 5.57 7.092-5.57zM6.213 16.769h2.074c.716 0 1.297-.51 1.297-1.141 0-.63-.58-1.142-1.297-1.142H6.213c-.716 0-1.296.511-1.296 1.142 0 .63.58 1.141 1.296 1.141zM7.61 24.38H3.78c-.66 0-1.196.511-1.196 1.142 0 .63.535 1.141 1.196 1.141h3.83c.66 0 1.196-.51 1.196-1.141 0-.63-.536-1.142-1.197-1.142z" transform="translate(7 8) rotate(-15 20.084 20.954)"/>
                                    </g>
                                </g>
                            </g>
                        </g>
                    </g>
                </g>
            </g>
        </g>
    </g>
</svg>
